<svg width="1024" height="1024" viewBox="0 0 1024 1024" fill="none" xmlns="http://www.w3.org/2000/svg">
  <defs>
    <linearGradient id="shell" x1="160" y1="82" x2="872" y2="950" gradientUnits="userSpaceOnUse">
      <stop stop-color="#463B35"/>
      <stop offset="0.38" stop-color="#2E2525"/>
      <stop offset="1" stop-color="#171312"/>
    </linearGradient>
    <linearGradient id="rim" x1="512" y1="76" x2="512" y2="952" gradientUnits="userSpaceOnUse">
      <stop stop-color="#6D502B"/>
      <stop offset="0.08" stop-color="#3A281E"/>
      <stop offset="0.88" stop-color="#171312"/>
      <stop offset="1" stop-color="#543E29"/>
    </linearGradient>
    <radialGradient id="screen" cx="0" cy="0" r="1" gradientUnits="userSpaceOnUse" gradientTransform="translate(475 456) rotate(92) scale(468 510)">
      <stop stop-color="#30211B"/>
      <stop offset="0.48" stop-color="#251C1B"/>
      <stop offset="0.84" stop-color="#140F0D"/>
      <stop offset="1" stop-color="#080605"/>
    </radialGradient>
    <radialGradient id="screenBloom" cx="0" cy="0" r="1" gradientUnits="userSpaceOnUse" gradientTransform="translate(512 510) rotate(90) scale(338 402)">
      <stop stop-color="#DAAB41" stop-opacity="0.18"/>
      <stop offset="0.58" stop-color="#99753B" stop-opacity="0.06"/>
      <stop offset="1" stop-color="#543E29" stop-opacity="0"/>
    </radialGradient>
    <linearGradient id="phosphor" x1="512" y1="284" x2="512" y2="745" gradientUnits="userSpaceOnUse">
      <stop stop-color="#F6B93D"/>
      <stop offset="0.25" stop-color="#DAAB41"/>
      <stop offset="0.76" stop-color="#C18D35"/>
      <stop offset="1" stop-color="#8B612A"/>
    </linearGradient>
    <linearGradient id="glassSheen" x1="208" y1="142" x2="653" y2="627" gradientUnits="userSpaceOnUse">
      <stop stop-color="#E7D18D" stop-opacity="0.12"/>
      <stop offset="0.28" stop-color="#DAAB41" stop-opacity="0.04"/>
      <stop offset="0.6" stop-color="#99753B" stop-opacity="0"/>
    </linearGradient>
    <pattern id="scanlines" width="14" height="14" patternUnits="userSpaceOnUse">
      <rect width="14" height="2" fill="#DAAB41" fill-opacity="0.08"/>
      <rect y="10" width="14" height="2" fill="#000000" fill-opacity="0.28"/>
    </pattern>
    <pattern id="phosphorLines" width="18" height="18" patternUnits="userSpaceOnUse">
      <rect width="18" height="9" fill="#F6B93D"/>
      <rect y="9" width="18" height="3" fill="#D2A13D"/>
      <rect y="12" width="18" height="6" fill="#6D502B"/>
    </pattern>
    <filter id="shellShadow" x="-12%" y="-12%" width="124%" height="132%" color-interpolation-filters="sRGB">
      <feDropShadow dx="0" dy="24" stdDeviation="28" flood-color="#000000" flood-opacity="0.55"/>
    </filter>
    <filter id="screenInset" x="-20%" y="-20%" width="140%" height="140%" color-interpolation-filters="sRGB">
      <feDropShadow dx="0" dy="8" stdDeviation="10" flood-color="#000000" flood-opacity="0.9"/>
    </filter>
    <filter id="amberGlow" x="-35%" y="-35%" width="170%" height="170%" color-interpolation-filters="sRGB">
      <feGaussianBlur stdDeviation="28" result="wide"/>
      <feGaussianBlur in="SourceGraphic" stdDeviation="7" result="tight"/>
      <feMerge>
        <feMergeNode in="wide"/>
        <feMergeNode in="tight"/>
        <feMergeNode in="SourceGraphic"/>
      </feMerge>
    </filter>
    <clipPath id="iconFrame">
      <rect x="40" y="40" width="944" height="944" rx="226"/>
    </clipPath>
    <clipPath id="screenFrame">
      <rect x="107" y="116" width="810" height="792" rx="180"/>
    </clipPath>
  </defs>

  <g filter="url(#shellShadow)">
    <rect x="40" y="40" width="944" height="944" rx="226" fill="url(#shell)"/>
    <rect x="44" y="44" width="936" height="936" rx="222" stroke="url(#rim)" stroke-width="8"/>
  </g>

  <g clip-path="url(#iconFrame)">
    <path d="M96 191C154 91 259 64 411 64H693C825 64 920 112 963 218" stroke="#99753B" stroke-opacity="0.22" stroke-width="18"/>
    <path d="M69 822C137 939 251 962 411 962H709C820 962 910 925 958 843" stroke="#000000" stroke-opacity="0.56" stroke-width="24"/>
  </g>

  <g filter="url(#screenInset)">
    <rect x="91" y="100" width="842" height="824" rx="198" fill="#17120F"/>
    <rect x="107" y="116" width="810" height="792" rx="180" fill="url(#screen)"/>
  </g>

  <g clip-path="url(#screenFrame)">
    <rect x="107" y="116" width="810" height="792" fill="url(#screenBloom)"/>
    <ellipse cx="512" cy="502" rx="416" ry="422" fill="url(#glassSheen)"/>

    <g opacity="0.2">
      <path d="M133 268H889" stroke="#DAAB41" stroke-width="2"/>
      <path d="M133 745H889" stroke="#DAAB41" stroke-width="2"/>
      <path d="M211 141V883" stroke="#6D502B" stroke-width="1"/>
      <path d="M821 141V883" stroke="#6D502B" stroke-width="1"/>
    </g>

    <g transform="translate(145 730) skewX(-10) scale(.62 -.62)" filter="url(#amberGlow)" opacity="0.28" fill="#DAAB41" stroke="#DAAB41" stroke-width="18" stroke-linejoin="round" paint-order="stroke fill">
      <path d="M100 0V680Q113 683 144 684Q175 685 209 685.5Q243 686 264 686Q353 686 407 676Q461 666 489.5 641.5Q518 617 528 573Q538 529 538 460Q538 397 527.5 356.5Q517 316 490.5 293.5Q464 271 416 262.5Q368 254 293 254H218V0ZM218 363H284Q340 363 369.5 371.5Q399 380 409.5 402Q420 424 420 466Q420 512 408 535.5Q396 559 363 568Q330 577 267 577H218Z"/>
      <g transform="translate(520 0)">
        <path d="M434 179H552Q547 121 535 84Q523 47 498.5 26.5Q474 6 431.5 -2Q389 -10 324 -10Q249 -10 201.5 4.5Q154 19 128 57Q102 95 91.5 163.5Q81 232 81 340Q81 443 92.5 511Q104 579 131 618Q158 657 205 673.5Q252 690 324 690Q388 690 429 682Q470 674 494 653Q518 632 530 594Q542 556 546 497H428Q422 532 411.5 550.5Q401 569 381 575.5Q361 582 324 582Q275 582 248.5 563Q222 544 212.5 492.5Q203 441 203 342Q203 242 212.5 189.5Q222 137 248.5 117.5Q275 98 324 98Q364 98 386 104.5Q408 111 418.5 128.5Q429 146 434 179Z"/>
      </g>
    </g>

    <g transform="translate(145 730) skewX(-10) scale(.62 -.62)" fill="url(#phosphor)" stroke="url(#phosphor)" stroke-width="18" stroke-linejoin="round" paint-order="stroke fill">
      <path d="M100 0V680Q113 683 144 684Q175 685 209 685.5Q243 686 264 686Q353 686 407 676Q461 666 489.5 641.5Q518 617 528 573Q538 529 538 460Q538 397 527.5 356.5Q517 316 490.5 293.5Q464 271 416 262.5Q368 254 293 254H218V0ZM218 363H284Q340 363 369.5 371.5Q399 380 409.5 402Q420 424 420 466Q420 512 408 535.5Q396 559 363 568Q330 577 267 577H218Z"/>
      <g transform="translate(520 0)">
        <path d="M434 179H552Q547 121 535 84Q523 47 498.5 26.5Q474 6 431.5 -2Q389 -10 324 -10Q249 -10 201.5 4.5Q154 19 128 57Q102 95 91.5 163.5Q81 232 81 340Q81 443 92.5 511Q104 579 131 618Q158 657 205 673.5Q252 690 324 690Q388 690 429 682Q470 674 494 653Q518 632 530 594Q542 556 546 497H428Q422 532 411.5 550.5Q401 569 381 575.5Q361 582 324 582Q275 582 248.5 563Q222 544 212.5 492.5Q203 441 203 342Q203 242 212.5 189.5Q222 137 248.5 117.5Q275 98 324 98Q364 98 386 104.5Q408 111 418.5 128.5Q429 146 434 179Z"/>
      </g>
    </g>

    <g transform="translate(145 730) skewX(-10) scale(.62 -.62)" fill="url(#phosphorLines)" stroke="url(#phosphorLines)" stroke-width="18" stroke-linejoin="round" paint-order="stroke fill" opacity="0.56">
      <path d="M100 0V680Q113 683 144 684Q175 685 209 685.5Q243 686 264 686Q353 686 407 676Q461 666 489.5 641.5Q518 617 528 573Q538 529 538 460Q538 397 527.5 356.5Q517 316 490.5 293.5Q464 271 416 262.5Q368 254 293 254H218V0ZM218 363H284Q340 363 369.5 371.5Q399 380 409.5 402Q420 424 420 466Q420 512 408 535.5Q396 559 363 568Q330 577 267 577H218Z"/>
      <g transform="translate(520 0)">
        <path d="M434 179H552Q547 121 535 84Q523 47 498.5 26.5Q474 6 431.5 -2Q389 -10 324 -10Q249 -10 201.5 4.5Q154 19 128 57Q102 95 91.5 163.5Q81 232 81 340Q81 443 92.5 511Q104 579 131 618Q158 657 205 673.5Q252 690 324 690Q388 690 429 682Q470 674 494 653Q518 632 530 594Q542 556 546 497H428Q422 532 411.5 550.5Q401 569 381 575.5Q361 582 324 582Q275 582 248.5 563Q222 544 212.5 492.5Q203 441 203 342Q203 242 212.5 189.5Q222 137 248.5 117.5Q275 98 324 98Q364 98 386 104.5Q408 111 418.5 128.5Q429 146 434 179Z"/>
      </g>
    </g>

    <rect x="107" y="116" width="810" height="792" fill="url(#scanlines)"/>

    <g fill="#DAAB41">
      <rect x="157" y="226" width="3" height="8" opacity="0.44"/>
      <rect x="876" y="302" width="2" height="12" opacity="0.34"/>
      <rect x="141" y="669" width="2" height="17" opacity="0.4"/>
      <rect x="860" y="781" width="3" height="7" opacity="0.32"/>
      <circle cx="184" cy="787" r="2" opacity="0.58"/>
      <circle cx="855" cy="203" r="2" opacity="0.42"/>
    </g>

    <rect x="108" y="117" width="808" height="790" rx="179" stroke="#99753B" stroke-opacity="0.28" stroke-width="4"/>
    <rect x="119" y="128" width="786" height="768" rx="169" stroke="#000000" stroke-opacity="0.76" stroke-width="7"/>
  </g>
</svg>
